<?xml version="1.0" standalone="no"?><!DOCTYPE svg PUBLIC "-//W3C//DTD SVG 1.1//EN" "http://www.w3.org/Graphics/SVG/1.1/DTD/svg11.dtd"><svg t="1644246059385" class="icon" viewBox="0 0 1024 1024" version="1.1" xmlns="http://www.w3.org/2000/svg" p-id="3862" xmlns:xlink="http://www.w3.org/1999/xlink" width="64" height="64"><defs><style type="text/css"></style></defs><path d="M709.818182 665.6m-246.690909 0a246.690909 246.690909 0 1 0 493.381818 0 246.690909 246.690909 0 1 0-493.381818 0Z" fill="#FFE9E8" p-id="3863"></path><path d="M512 1012.363636C235.054545 1012.363636 11.636364 788.945455 11.636364 512S235.054545 11.636364 512 11.636364 1012.363636 237.381818 1012.363636 512c0 276.945455-223.418182 500.363636-500.363636 500.363636z m0-930.909091C274.618182 81.454545 81.454545 274.618182 81.454545 512S274.618182 942.545455 512 942.545455 942.545455 749.381818 942.545455 512 749.381818 81.454545 512 81.454545z" fill="#FF6D66" p-id="3864"></path><path d="M437.527273 798.254545c-2.327273 0-6.981818 0-9.309091-2.327272-158.254545-46.545455-221.090909-223.418182-223.418182-230.4-6.981818-18.618182 2.327273-37.236364 20.945455-44.218182 18.618182-6.981818 37.236364 2.327273 44.218181 20.945454 0 2.327273 55.854545 151.272727 179.2 186.181819 18.618182 4.654545 30.254545 25.6 23.272728 44.218181-6.981818 16.290909-20.945455 25.6-34.909091 25.6z" fill="#FF6D66" p-id="3865"></path><path d="M588.8 788.945455m-44.218182 0a44.218182 44.218182 0 1 0 88.436364 0 44.218182 44.218182 0 1 0-88.436364 0Z" fill="#FF6D66" p-id="3866"></path></svg>